<svg width="50" height="50" viewBox="0 0 50 50" fill="none" xmlns="http://www.w3.org/2000/svg">
<g clip-path="url(#clip0)">
<path d="M49.1714 24.5833C49.1714 38.1603 38.164 49.1667 24.5857 49.1667C11.0074 49.1667 0 38.1603 0 24.5833C0 11.0063 11.0074 0 24.5857 0C38.164 0 49.1714 11.0063 49.1714 24.5833Z" fill="#4958C5"/>
<path d="M34.6042 14.3968H27.8858V12.5038C27.8858 10.4267 30.0419 8.87475 31.4881 8.744C32.7503 8.62992 33.4339 8.47217 35.9319 9.28725V5.87814C34.2228 5.45598 32.1718 5.51548 30.4626 5.66781C28.5957 5.77297 24.3622 7.7449 24.3622 12.3197V14.3968H21.8905V17.4993H24.3622V29.1994C24.3622 29.1994 22.7583 27.6745 19.4713 27.6745C14.896 27.6745 10.8467 31.1977 10.8467 36.2458C10.8467 41.2939 14.6068 44.9171 19.5766 44.9171C24.5463 44.9171 28.0172 40.6629 28.1223 36.2458C28.2275 31.8287 28.1223 26.8068 28.1223 26.8068V17.4993H34.6042V14.3968Z" fill="white"/>
<path d="M19.6092 41.1509C22.3974 41.1509 24.6578 38.8908 24.6578 36.1028C24.6578 33.3148 22.3974 31.0547 19.6092 31.0547C16.8209 31.0547 14.5605 33.3148 14.5605 36.1028C14.5605 38.8908 16.8209 41.1509 19.6092 41.1509Z" fill="#4958C5"/>
</g>
<defs>
<clipPath id="clip0">
<rect width="50" height="49.1667" fill="white"/>
</clipPath>
</defs>
</svg>
