<svg width="162" height="54" viewBox="0 0 162 54" fill="none" xmlns="http://www.w3.org/2000/svg">
<path d="M18.8284 2H153.172C153.437 2 153.691 2.10536 153.879 2.29289L160.707 9.12132C160.895 9.30886 161 9.56321 161 9.82843V46.1716C161 46.4368 160.895 46.6911 160.707 46.8787L154.879 52.7071C154.691 52.8946 154.437 53 154.172 53H122.481L119.381 49.1259C118.812 48.4143 117.95 48 117.039 48H106.961C106.05 48 105.188 48.4143 104.619 49.1259L101.519 53H11.8284C11.5632 53 11.3089 52.8946 11.1213 52.7071L2.29289 43.8787C2.10536 43.6911 2 43.4368 2 43.1716V18.8284C2 18.5632 2.10536 18.3089 2.29289 18.1213L18.1213 2.29289C18.3089 2.10536 18.5632 2 18.8284 2Z" fill="url(#paint0_linear)" stroke="black" stroke-width="2"/>
<path d="M33 7.5H33.5V7V1V0.5H33H14H13.7929L13.6464 0.646447L0.646447 13.6464L0.5 13.7929V14V33V33.5H1H7H7.5V33V17.1274L17.1274 7.5L33 7.5Z" fill="#FCFDFF" stroke="#1B2433"/>
<defs>
<linearGradient id="paint0_linear" x1="162" y1="23.622" x2="1.03562" y2="20.0691" gradientUnits="userSpaceOnUse">
<stop stop-color="#88DBFB"/>
<stop offset="1" stop-color="#C5F2FD"/>
</linearGradient>
</defs>
</svg>
