<svg width="30" height="30" viewBox="0 0 30 30" fill="none" xmlns="http://www.w3.org/2000/svg">
<path fill-rule="evenodd" clip-rule="evenodd" d="M22.4132 7.34286C21.94 6.86973 21.1729 6.86973 20.6998 7.34286L15.0693 12.9733L9.43986 7.34383C8.96672 6.8707 8.19962 6.8707 7.72648 7.34383C7.25335 7.81697 7.25335 8.58407 7.72648 9.05721L13.356 14.6867L7.72711 20.3156C7.25398 20.7887 7.25398 21.5558 7.72711 22.0289C8.20025 22.5021 8.96735 22.5021 9.44049 22.0289L15.0693 16.4001L20.6992 22.0299C21.1723 22.503 21.9394 22.503 22.4125 22.0299C22.8857 21.5568 22.8857 20.7897 22.4125 20.3165L16.7827 14.6867L22.4132 9.05624C22.8863 8.5831 22.8863 7.816 22.4132 7.34286Z" fill="black"/>
</svg>
