<svg width="17" height="17" viewBox="0 0 17 17" fill="none" xmlns="http://www.w3.org/2000/svg">
<path d="M12.2412 0.489258L1.40948 0.489258C0.8679 0.489258 0.506836 0.850291 0.506836 1.39189L0.506836 12.2236C0.506836 12.7652 0.8679 13.1263 1.40948 13.1263L12.2412 13.1263C12.7828 13.1263 13.1438 12.7652 13.1438 12.2236L13.1438 1.39189C13.1438 0.850306 12.7828 0.489258 12.2412 0.489258ZM11.3386 11.321L2.31214 11.321L2.31214 2.29453L11.3386 2.29453L11.3386 11.321ZM16.7544 15.629L16.7544 4.7973C16.7544 4.25572 16.3934 3.89467 15.8518 3.89467L14.0465 3.89467L14.0465 5.69994H14.9491L14.9491 14.7264L5.92269 14.7264V13.8237L4.11742 13.8237V15.629C4.11742 16.1706 4.47847 16.5317 5.02005 16.5317L15.8518 16.5317C16.3934 16.5317 16.7544 16.1706 16.7544 15.629V15.629Z" fill="black"/>
</svg>
