<svg width="42" height="40" viewBox="0 0 42 40" fill="none" xmlns="http://www.w3.org/2000/svg">
<path d="M39.175 1.07715L23.1387 12.9429L26.1208 5.95002L39.175 1.07715Z" fill="#E17726" stroke="#E17726" stroke-width="0.288462" stroke-linecap="round" stroke-linejoin="round"/>
<path d="M2.18457 1.07715L18.0781 13.0536L15.2389 5.95001L2.18457 1.07715Z" fill="#E27625" stroke="#E27625" stroke-width="0.288462" stroke-linecap="round" stroke-linejoin="round"/>
<path d="M33.3996 28.5898L29.1328 35.1081L38.2692 37.6237L40.8865 28.7323L33.3996 28.5898Z" fill="#E27625" stroke="#E27625" stroke-width="0.288462" stroke-linecap="round" stroke-linejoin="round"/>
<path d="M0.487305 28.7323L3.08863 37.6237L12.2092 35.1081L7.9582 28.5898L0.487305 28.7323Z" fill="#E27625" stroke="#E27625" stroke-width="0.288462" stroke-linecap="round" stroke-linejoin="round"/>
<path d="M11.7175 17.5787L9.17969 21.4074L18.2209 21.8188L17.9196 12.0889L11.7175 17.5787Z" fill="#E27625" stroke="#E27625" stroke-width="0.288462" stroke-linecap="round" stroke-linejoin="round"/>
<path d="M29.6419 17.5781L23.3449 11.9775L23.1387 21.8182L32.1798 21.4069L29.6419 17.5781Z" fill="#E27625" stroke="#E27625" stroke-width="0.288462" stroke-linecap="round" stroke-linejoin="round"/>
<path d="M12.208 35.1084L17.6803 32.4664L12.9694 28.7959L12.208 35.1084Z" fill="#E27625" stroke="#E27625" stroke-width="0.288462" stroke-linecap="round" stroke-linejoin="round"/>
<path d="M23.6768 32.4664L29.1331 35.1084L28.3876 28.7959L23.6768 32.4664Z" fill="#E27625" stroke="#E27625" stroke-width="0.288462" stroke-linecap="round" stroke-linejoin="round"/>
<path d="M29.1331 35.1079L23.6768 32.4658L24.1208 36.0097L24.0732 37.5127L29.1331 35.1079Z" fill="#D5BFB2" stroke="#D5BFB2" stroke-width="0.288462" stroke-linecap="round" stroke-linejoin="round"/>
<path d="M12.208 35.1079L17.2838 37.5127L17.2521 36.0097L17.6803 32.4658L12.208 35.1079Z" fill="#D5BFB2" stroke="#D5BFB2" stroke-width="0.288462" stroke-linecap="round" stroke-linejoin="round"/>
<path d="M17.3803 26.4536L12.8438 25.1247L16.0478 23.6533L17.3803 26.4536Z" fill="#233447" stroke="#233447" stroke-width="0.288462" stroke-linecap="round" stroke-linejoin="round"/>
<path d="M23.9785 26.4536L25.311 23.6533L28.5309 25.1247L23.9785 26.4536Z" fill="#233447" stroke="#233447" stroke-width="0.288462" stroke-linecap="round" stroke-linejoin="round"/>
<path d="M12.2089 35.1081L13.0021 28.5898L7.95801 28.7323L12.2089 35.1081Z" fill="#CC6228" stroke="#CC6228" stroke-width="0.288462" stroke-linecap="round" stroke-linejoin="round"/>
<path d="M28.3555 28.5898L29.1327 35.1081L33.3995 28.7323L28.3555 28.5898Z" fill="#CC6228" stroke="#CC6228" stroke-width="0.288462" stroke-linecap="round" stroke-linejoin="round"/>
<path d="M32.1798 21.4072L23.1387 21.8186L23.9793 26.4542L25.3118 23.6538L28.5317 25.1252L32.1798 21.4072Z" fill="#CC6228" stroke="#CC6228" stroke-width="0.288462" stroke-linecap="round" stroke-linejoin="round"/>
<path d="M12.8438 25.1252L16.0478 23.6538L17.3803 26.4542L18.2209 21.8186L9.17969 21.4072L12.8438 25.1252Z" fill="#CC6228" stroke="#CC6228" stroke-width="0.288462" stroke-linecap="round" stroke-linejoin="round"/>
<path d="M9.17969 21.4072L12.9707 28.7957L12.8437 25.1252L9.17969 21.4072Z" fill="#E27525" stroke="#E27525" stroke-width="0.288462" stroke-linecap="round" stroke-linejoin="round"/>
<path d="M28.5324 25.1252L28.3896 28.7957L32.1806 21.4072L28.5324 25.1252Z" fill="#E27525" stroke="#E27525" stroke-width="0.288462" stroke-linecap="round" stroke-linejoin="round"/>
<path d="M18.2216 21.8184L17.3809 26.454L18.4436 31.928L18.6816 24.7136L18.2216 21.8184Z" fill="#E27525" stroke="#E27525" stroke-width="0.288462" stroke-linecap="round" stroke-linejoin="round"/>
<path d="M23.1385 21.8184L22.6943 24.6979L22.9164 31.928L23.9792 26.454L23.1385 21.8184Z" fill="#E27525" stroke="#E27525" stroke-width="0.288462" stroke-linecap="round" stroke-linejoin="round"/>
<path d="M23.9778 26.454L22.915 31.928L23.6764 32.466L28.3874 28.7955L28.5302 25.125L23.9778 26.454Z" fill="#F5841F" stroke="#F5841F" stroke-width="0.288462" stroke-linecap="round" stroke-linejoin="round"/>
<path d="M12.8438 25.125L12.9707 28.7955L17.6816 32.466L18.443 31.928L17.3803 26.454L12.8438 25.125Z" fill="#F5841F" stroke="#F5841F" stroke-width="0.288462" stroke-linecap="round" stroke-linejoin="round"/>
<path d="M24.0726 37.5132L24.1201 36.0102L23.7078 35.6621H17.6486L17.2521 36.0102L17.2838 37.5132L12.208 35.1084L13.9845 36.5639L17.5852 39.0479H23.7553L27.3718 36.5639L29.1325 35.1084L24.0726 37.5132Z" fill="#C0AC9D" stroke="#C0AC9D" stroke-width="0.288462" stroke-linecap="round" stroke-linejoin="round"/>
<path d="M23.676 32.4656L22.9146 31.9277H18.4415L17.6803 32.4656L17.252 36.0096L17.6485 35.6615H23.7077L24.1201 36.0096L23.676 32.4656Z" fill="#161616" stroke="#161616" stroke-width="0.288462" stroke-linecap="round" stroke-linejoin="round"/>
<path d="M39.8557 13.7181L41.204 7.16823L39.1737 1.07715L23.6768 12.5474L29.6407 17.5784L38.0633 20.0307L39.9192 17.8633L39.1103 17.2778L40.395 16.1072L39.4116 15.3477L40.6964 14.3668L39.8557 13.7181Z" fill="#763E1A" stroke="#763E1A" stroke-width="0.288462" stroke-linecap="round" stroke-linejoin="round"/>
<path d="M0.154297 7.16823L1.51841 13.7181L0.646017 14.3668L1.94668 15.3477L0.96325 16.1072L2.24805 17.2778L1.4391 17.8633L3.29493 20.0307L11.7176 17.5784L17.6815 12.5474L2.18461 1.07715L0.154297 7.16823Z" fill="#763E1A" stroke="#763E1A" stroke-width="0.288462" stroke-linecap="round" stroke-linejoin="round"/>
<path d="M38.0653 20.0303L29.6427 17.5781L32.1806 21.4068L28.3896 28.7952L33.402 28.7319H40.8887L38.0653 20.0303Z" fill="#F5841F" stroke="#F5841F" stroke-width="0.288462" stroke-linecap="round" stroke-linejoin="round"/>
<path d="M11.7174 17.5781L3.29484 20.0303L0.487305 28.7319H7.9582L12.9705 28.7952L9.17956 21.4068L11.7174 17.5781Z" fill="#F5841F" stroke="#F5841F" stroke-width="0.288462" stroke-linecap="round" stroke-linejoin="round"/>
<path d="M23.1365 21.8187L23.6758 12.5475L26.1185 5.9502H15.2373L17.68 12.5475L18.2193 21.8187L18.4255 24.7297L18.4414 31.9283H22.9144L22.9303 24.7297L23.1365 21.8187Z" fill="#F5841F" stroke="#F5841F" stroke-width="0.288462" stroke-linecap="round" stroke-linejoin="round"/>
</svg>
