<svg width="24" height="24" viewBox="0 0 24 24" fill="none" xmlns="http://www.w3.org/2000/svg">
<path d="M10.4508 3.08587C14.266 3.08587 17.4814 6.07112 17.771 9.88184C18.0783 13.9246 15.0394 17.4638 10.9966 17.7707C10.806 17.7852 10.6163 17.7923 10.4279 17.7923C6.61272 17.7923 3.39699 14.807 3.10737 10.9963C2.95854 9.03805 3.58118 7.13864 4.86085 5.64874C6.14052 4.15885 7.92357 3.25623 9.88181 3.1074C10.0728 3.09326 10.2624 3.08587 10.4508 3.08587V3.08587ZM10.4504 0C10.1849 0 9.91717 0.00996517 9.64812 0.0305376C3.89973 0.467702 -0.406336 5.48191 0.0305067 11.2306C0.447099 16.71 5.02222 20.8788 10.4279 20.8788C10.6935 20.8788 10.9612 20.8688 11.2303 20.8482C16.979 20.4114 21.2847 15.3969 20.8479 9.64847C20.4316 4.16881 15.8565 0 10.4504 0V0Z" fill="white"/>
<path d="M22.4565 24.0002C22.0617 24.0002 21.667 23.8494 21.3655 23.5482L17.3397 19.5218C16.737 18.9191 16.737 17.9429 17.3397 17.3398C17.9424 16.7368 18.9187 16.7371 19.5217 17.3398L23.5478 21.3659C24.1505 21.9686 24.1505 22.9449 23.5478 23.5479C23.2463 23.8494 22.8512 24.0002 22.4565 24.0002V24.0002Z" fill="white"/>
<path d="M16.248 18.4308L18.4299 16.249L22.1093 19.9285L19.9275 22.1102L16.248 18.4308Z" fill="white"/>
</svg>
