<svg width="41" height="41" viewBox="0 0 41 41" fill="none" xmlns="http://www.w3.org/2000/svg">
<path fill-rule="evenodd" clip-rule="evenodd" d="M1.37561 6.89062C0 9.59135 0 13.125 0 20.1923C0 27.2596 0 30.7933 1.37561 33.494C2.58714 35.8666 4.51803 37.7975 6.89062 39.009C9.59135 40.3846 13.125 40.3846 20.1923 40.3846C27.2596 40.3846 30.7933 40.3846 33.494 39.009C35.8666 37.7975 37.7975 35.8666 39.009 33.494C40.3846 30.7933 40.3846 27.2596 40.3846 20.1923C40.3846 13.125 40.3846 9.59135 39.009 6.89062C37.7975 4.51803 35.8666 2.58714 33.494 1.37561C30.7933 0 27.2596 0 20.1923 0C13.125 0 9.59135 0 6.89062 1.37561C4.51803 2.58714 2.58714 4.51803 1.37561 6.89062ZM30.2695 10.8912C30.6229 10.8912 30.9574 11.0364 31.2035 11.2825C31.4495 11.5349 31.5884 11.8756 31.5823 12.2226C31.519 15.9835 31.3739 18.8609 31.1025 21.1388C30.8375 23.4168 30.4399 25.1079 29.8405 26.4772C29.4367 27.3921 28.9381 28.1494 28.3513 28.793C27.5625 29.6449 26.6602 30.2633 25.6758 30.8501C25.2549 31.1018 24.8174 31.3503 24.3584 31.611C23.3791 32.1671 22.3023 32.7786 21.082 33.595C20.6404 33.8915 20.0662 33.8915 19.6245 33.595C18.3855 32.769 17.2945 32.15 16.3062 31.5894C16.0865 31.4647 15.8718 31.3429 15.6617 31.2224C14.507 30.5535 13.4658 29.9162 12.5572 28.9949C11.9514 28.3891 11.4277 27.6508 11.0112 26.7737C10.4433 25.6 10.0583 24.1803 9.77439 22.3441C9.39578 19.8894 9.20648 16.6776 9.13686 12.2226C9.13076 11.8756 9.26327 11.5349 9.50937 11.2825C9.75546 11.0364 10.0962 10.8912 10.4496 10.8912H10.9923C12.6644 10.8976 16.3558 10.7335 19.5487 8.2473C20.0219 7.88131 20.6846 7.88131 21.1578 8.2473C24.3508 10.7335 28.0421 10.8976 29.7206 10.8912H30.2695ZM27.3354 25.638C27.7455 24.7923 28.0863 23.625 28.345 21.9465C28.6542 19.9399 28.8435 17.2139 28.9319 13.5037C26.9631 13.4468 23.5809 13.0682 20.3564 10.8976C17.132 13.0619 13.7498 13.4405 11.7873 13.5037C11.8567 16.5703 11.9955 18.9556 12.2163 20.8296C12.4688 22.9625 12.8285 24.4075 13.2764 25.4234C13.5731 26.0986 13.9012 26.5844 14.2924 27.0135C14.8162 27.5878 15.4787 28.061 16.3811 28.6037C16.7554 28.8282 17.168 29.0618 17.6173 29.3162C18.4176 29.7691 19.3339 30.2877 20.3564 30.9384C21.3601 30.2983 22.2632 29.785 23.0542 29.3354C23.2927 29.1999 23.5209 29.0701 23.7386 28.9444C24.8492 28.3071 25.6695 27.7771 26.2816 27.1587C26.6918 26.7359 27.0262 26.2753 27.3354 25.638Z" fill="#3375BB"/>
</svg>
